<?xml version="1.0" encoding="UTF-8"?> <!-- Generator: Adobe Illustrator 24.3.0, SVG Export Plug-In . SVG Version: 6.00 Build 0) --> <svg xmlns="http://www.w3.org/2000/svg" xmlns:xlink="http://www.w3.org/1999/xlink" version="1.1" x="0px" y="0px" viewBox="0 0 900 600" style="enable-background:new 0 0 900 600;" xml:space="preserve"> <style type="text/css"> .st0{display:none;} .st1{display:inline;fill:#737373;} .st2{display:inline;fill:none;stroke:#FF4E33;stroke-miterlimit:10;} .st3{display:inline;} .st4{fill:#FF4E33;} .st5{fill:#000E40;} </style> <g id="Layer_1" class="st0"> <path class="st1" d="M516.7,225c-18,0-33.4,3.4-46.2,10.3c-12.7,6.9-22.3,16.7-28.8,29.3c-6.5,12.7-9.7,27.6-9.7,44.9 c0,0.1,0,0.1,0,0.2h0c0,18.4-4.5,32.5-13.5,42.2c-9,9.7-21.8,14.6-38.4,14.6h-32V252.6h32c16.6,0,29.4,4.9,38.4,14.6 c3.6,3.9,6.5,8.6,8.7,13.9c2.2-12.9,6.1-24.7,11.6-35.4c0.2-0.5,0.5-1,0.8-1.4c-3.9-3.4-8.1-6.3-12.8-8.9 c-12.7-6.9-28.1-10.3-46.2-10.3h-64.5v169h64.5c18,0,33.4-3.4,46.2-10.3c12.7-6.9,22.3-16.6,28.8-29.3c6.5-12.6,9.7-27.5,9.7-44.6 h0c0-0.1,0-0.1,0-0.2c0-18.5,4.5-32.6,13.5-42.4c9-9.7,21.8-14.6,38.4-14.6h32v113.9h-32c-16.6,0-29.4-4.9-38.4-14.6 c-3.6-3.9-6.5-8.6-8.7-13.9c-2.2,13.1-6.1,25.1-11.6,35.8c-0.2,0.4-0.4,0.8-0.6,1.2c3.8,3.3,8.1,6.2,12.8,8.8 c12.7,6.9,28.1,10.3,46.2,10.3h64.5V225H516.7z"></path> <path class="st2" d="M200.6,213.5"></path> <path class="st2" d="M198.9,214.4"></path> <g class="st3"> <path class="st4" d="M336.3,580.9h-1.1l-3.4-4.9l-3.4,4.9h-1.1l4-5.6l-3.7-5.2h1.1l3.1,4.5l3.1-4.5h1.1l-3.7,5.2L336.3,580.9z"></path> </g> <g class="st3"> <path class="st4" d="M710.2,96.1v426.9H186.9V96.1H710.2 M711.2,95.1H185.9v428.9h525.3V95.1L711.2,95.1z"></path> </g> <polyline class="st2" points="347.9,410.4 347.9,552.6 315.9,552.6 315.9,410.4 "></polyline> <g class="st3"> <g> <path class="st4" d="M111.6,160.4h1.5v0.8h-1.5v2.8h-0.9v-2.8h-5.4v-0.8l5.4-6.9h0.9V160.4z M106.2,160.4h4.4v-5.6L106.2,160.4z"></path> <path class="st4" d="M120.6,164h-1l-2.3-3.3L115,164h-1l2.8-3.9l-2.6-3.7h1.1l2.1,3l2.1-3h1l-2.6,3.6L120.6,164z"></path> </g> </g> <polyline class="st2" points="171.7,220.7 133.1,220.7 133.1,95.6 171.7,95.6 "></polyline> <g class="st3"> <g> <path class="st4" d="M785,457.3h1.5v0.8H785v2.8h-0.9v-2.8h-5.4v-0.8l5.4-6.9h0.9V457.3z M779.6,457.3h4.4v-5.6L779.6,457.3z"></path> <path class="st4" d="M794,460.9h-1l-2.3-3.3l-2.3,3.3h-1l2.8-3.9l-2.6-3.7h1.1l2.1,3l2.1-3h1l-2.6,3.6L794,460.9z"></path> </g> </g> <g class="st3"> <g> <path class="st4" d="M647.5,25h1.5v0.8h-1.5v2.8h-0.9v-2.8h-5.4V25l5.4-6.9h0.9V25z M642.2,25h4.4v-5.6L642.2,25z"></path> <path class="st4" d="M656.5,28.6h-1l-2.3-3.3l-2.3,3.3h-1l2.8-3.9l-2.6-3.7h1.1l2.1,3l2.1-3h1l-2.6,3.6L656.5,28.6z"></path> </g> </g> <polyline class="st2" points="725.3,398.4 764,398.4 764,523.5 725.3,523.5 "></polyline> <polyline class="st2" points="586.1,80.9 586.1,42.3 711.2,42.3 711.2,80.9 "></polyline> </g> <g id="Layer_2"> <path class="st5" d="M585.5,131.9c-35.9,0-66.5,6.8-91.9,20.5c-25.3,13.7-44.5,33.1-57.4,58.3c-12.9,25.2-19.4,54.9-19.4,89.3 c0,0.1,0,0.3,0,0.4h0c-0.1,36.6-9,64.6-26.9,83.9c-17.9,19.4-43.4,29-76.5,29h-63.8V186.7h63.8c33.1,0,58.6,9.7,76.5,29 c7.2,7.8,13,17,17.3,27.7c4.5-25.8,12.1-49.2,23-70.5c0.5-1,1-1.9,1.5-2.9c-7.7-6.7-16.2-12.6-25.5-17.7 c-25.3-13.7-56-20.5-91.9-20.5H186v336.3h128.5c35.9,0,66.5-6.8,91.9-20.5c25.3-13.7,44.5-33.1,57.4-58.3 c12.9-25.1,19.3-54.7,19.4-88.9h0c0-0.1,0-0.3,0-0.4c0-36.8,9-64.9,26.9-84.3c17.9-19.4,43.4-29,76.5-29h63.8v226.7h-63.8 c-33.1,0-58.6-9.7-76.5-29c-7.2-7.8-13-17.1-17.4-27.7c-4.4,26.1-12.2,49.9-23.1,71.3c-0.4,0.8-0.8,1.5-1.2,2.3 c7.6,6.6,16.1,12.4,25.4,17.4c25.3,13.7,56,20.5,91.9,20.5H714V131.9H585.5z"></path> </g> </svg> 